<svg xmlns="http://www.w3.org/2000/svg" width="25" height="23"><defs><filter id="a" width="47.2" height="46.2" x="-11.1" y="-13.1" filterUnits="userSpaceOnUse"><feOffset dy="3" in="SourceGraphic" result="FeOffset1043Out"/><feGaussianBlur in="FeOffset1043Out" result="FeGaussianBlur1044Out" stdDeviation="1.16 1.16"/></filter><mask id="b" width="2.02" height="2.02" x="-1.01" y="-1.01"><path fill="#fff" d="M1.8-.2h21.4v17.4H1.8z"/><path d="M22.542 2.058c-.335.186-1.34.557-2.277.65.601-.327 1.49-1.392 1.71-2.241-.578.373-1.905.914-2.56.914v.001C18.668.6 17.615-.023 16.45-.023c-2.267 0-3.923 1.977-3.923 4.253 0 .316.037.625.104.921h-.001C9.554 5.07 6.011 3.364 3.986.715 2.742 2.88 3.819 5.442 5.231 6.32c-.483.037-1.374-.055-1.792-.467-.028 1.437.659 3.34 3.166 4.03-.482.261-1.337.187-1.709.13.13 1.214 1.82 2.8 3.669 2.8-.659.764-3.137 2.153-5.919 1.712a12.287 12.287 0 006.42 1.822c6.623 0 12.05-5.39 11.773-12.042l-.001-.023.001-.052-.002-.06c.603-.415 1.127-1.148 1.705-2.112z"/></mask></defs><g filter="url(#a)"><path fill="none" stroke="#000" stroke-opacity=".25" stroke-width=".4" d="M22.542 2.058c-.335.186-1.34.557-2.277.65.601-.327 1.49-1.392 1.71-2.241-.578.373-1.905.914-2.56.914v.001C18.668.6 17.615-.023 16.45-.023c-2.267 0-3.923 1.977-3.923 4.253 0 .316.037.625.104.921h-.001C9.554 5.07 6.011 3.364 3.986.715 2.742 2.88 3.819 5.442 5.231 6.32c-.483.037-1.374-.055-1.792-.467-.028 1.437.659 3.34 3.166 4.03-.482.261-1.337.187-1.709.13.13 1.214 1.82 2.8 3.669 2.8-.659.764-3.137 2.153-5.919 1.712a12.287 12.287 0 006.42 1.822c6.623 0 12.05-5.39 11.773-12.042l-.001-.023.001-.052-.002-.06c.603-.415 1.127-1.148 1.705-2.112z" mask="url(&quot;#b&quot;)"/><path fill-opacity=".25" d="M22.542 2.058c-.335.186-1.34.557-2.277.65.601-.327 1.49-1.392 1.71-2.241-.578.373-1.905.914-2.56.914v.001C18.668.6 17.615-.023 16.45-.023c-2.267 0-3.923 1.977-3.923 4.253 0 .316.037.625.104.921h-.001C9.554 5.07 6.011 3.364 3.986.715 2.742 2.88 3.819 5.442 5.231 6.32c-.483.037-1.374-.055-1.792-.467-.028 1.437.659 3.34 3.166 4.03-.482.261-1.337.187-1.709.13.13 1.214 1.82 2.8 3.669 2.8-.659.764-3.137 2.153-5.919 1.712a12.287 12.287 0 006.42 1.822c6.623 0 12.05-5.39 11.773-12.042l-.001-.023.001-.052-.002-.06c.603-.415 1.127-1.148 1.705-2.112z"/></g><path fill="#e74c3c" d="M22.542 2.058c-.335.186-1.34.557-2.277.65.601-.327 1.49-1.392 1.71-2.241-.578.373-1.905.914-2.56.914v.001C18.668.6 17.615-.023 16.45-.023c-2.267 0-3.923 1.977-3.923 4.253 0 .316.037.625.104.921h-.001C9.554 5.07 6.011 3.364 3.986.715 2.742 2.88 3.819 5.442 5.231 6.32c-.483.037-1.374-.055-1.792-.467-.028 1.437.659 3.34 3.166 4.03-.482.261-1.337.187-1.709.13.13 1.214 1.82 2.8 3.669 2.8-.659.764-3.137 2.153-5.919 1.712a12.287 12.287 0 006.42 1.822c6.623 0 12.05-5.39 11.773-12.042l-.001-.023.001-.052-.002-.06c.603-.415 1.127-1.148 1.705-2.112z"/></svg>