<svg fill="#fff" xmlns="http://www.w3.org/2000/svg" width="28" height="28"><path d="M25.234 0c1.422 0 2.734 1.062 2.734 2.547 0 .828-.328 1.625-.703 2.359-1.219 2.312-5.313 9.953-7.266 11.75-.953.891-2.078 1.422-3.406 1.422-2.641 0-4.797-2.25-4.797-4.875 0-1.25.516-2.469 1.437-3.313L23.202.843c.547-.5 1.266-.844 2.031-.844zM11.031 16.156a6.381 6.381 0 004.016 3.219l.016 1.109c.094 4.453-3 7.516-7.469 7.516C2.297 28 0 23.781 0 18.984c.578.391 2.594 2 3.25 2a.898.898 0 00.859-.578c1.328-3.469 3.406-4.094 6.922-4.25z"/></svg>